<?xml version="1.0" encoding="utf-8"?>
<!-- Generator: Adobe Illustrator 21.1.0, SVG Export Plug-In . SVG Version: 6.00 Build 0)  -->
<svg version="1.1" id="Layer_1" xmlns="http://www.w3.org/2000/svg" xmlns:xlink="http://www.w3.org/1999/xlink" x="0px" y="0px"
	 viewBox="0 0 499.8 352.4" style="enable-background:new 0 0 499.8 352.4;" xml:space="preserve">
<style type="text/css">
	.st0{fill:#FFFFFF;}
</style>
<path class="st0" d="M294.4,352.4c-0.2,0-0.4,0-0.5,0c-2,0-4.1-0.3-6-1.2c-2.4-1-4.4-2.6-6-4.5c-4.8-3.6-9.4-7.1-14-10.5
	c-37.4-28.1-69.7-52.4-95.3-74.6c-6.3-5.4-7-14.9-1.5-21.2c5.4-6.3,14.9-7,21.2-1.5c24.8,21.4,56.7,45.5,93.7,73.3
	c2.7,2,5.4,4,8.1,6.1c2.8-2.1,5.6-4.2,8.4-6.3c76.2-57.3,126.6-95.2,150.4-137.5c13.8-24.7,19.5-51.4,16-75.1
	c-3.6-24.2-16.4-44.1-37.1-57.7c-19.3-12.5-56.4-17-85-2.8c-22.9,11.4-35.6,31.8-37.8,60.8c-0.6,7.8-7.1,13.9-15,13.9
	s-14.4-6.1-15-13.9c-2.2-29-14.9-49.5-37.9-60.8c-28.6-14.1-65.6-9.6-84.8,2.9c-20.3,13.3-33.1,32.9-37,56.7
	c-1.3,8.2-9,13.7-17.2,12.4c-8.2-1.3-13.7-9-12.4-17.2c5.2-32.4,22.6-59,50.2-77.1c26.6-17.3,74.4-24.5,114.5-4.7
	c16.9,8.3,30.2,20.7,39.5,36.1c9.3-15.4,22.6-27.7,39.4-36.1c40-19.9,88-12.7,114.7,4.6C503,52.4,515.7,123.4,479,189.1
	C452.1,237,399.7,276.4,320.4,336c-4.7,3.5-9.4,7.1-14.3,10.8c-1.1,1.3-2.4,2.5-3.8,3.4C299.9,351.6,297.1,352.4,294.4,352.4z
	 M304.6,326.5C304.7,326.5,304.7,326.5,304.6,326.5C304.7,326.5,304.7,326.5,304.6,326.5z"/>
<path class="st0" d="M191.5,159.8H15c-8.3,0-15-6.7-15-15s6.7-15,15-15h176.5c8.3,0,15,6.7,15,15S199.8,159.8,191.5,159.8z"/>
<path class="st0" d="M246.6,213H70.1c-8.3,0-15-6.7-15-15s6.7-15,15-15h176.5c8.3,0,15,6.7,15,15S254.9,213,246.6,213z"/>
</svg>
