<?xml version="1.0" encoding="utf-8"?>
<!-- Generator: Adobe Illustrator 21.1.0, SVG Export Plug-In . SVG Version: 6.00 Build 0)  -->
<svg version="1.1" id="Spiritual_Concept" xmlns="http://www.w3.org/2000/svg" xmlns:xlink="http://www.w3.org/1999/xlink" x="0px"
	 y="0px" viewBox="0 0 87.1 21" style="enable-background:new 0 0 87.1 21;" xml:space="preserve">
<style type="text/css">
	.st0{fill:#FFFFFF;}
</style>
<g>
	<path class="st0" d="M6.6,7.6c0,0-1.8-0.4-1.7-2c0.3-2.5,3.5-2.2,3.5-2.2s2.8,0,3.4,2.2c0.3,0.9,1,0.9,1,0.9H15c0,0,1.4,0,1-1.2
		C14.7-0.1,8.4,0,8.4,0s-7-0.2-7.7,5.1C0.4,8,1.9,9.4,1.9,9.4s1.3,1.5,5.3,2.4c5.7,1,5.4,3.1,5.4,3.1s0.1,3.2-4.2,2.8
		c-3.3-0.5-4-2.5-4-2.5S4,13.9,3.2,13.9c-1,0-2.1,0-2.1,0S0,13.8,0,14.7C0,20.9,8.5,21,8.5,21c9.4,0,8.2-7.1,8.2-7.1s0-3.6-5.7-5.1
		C8.2,8.1,6.6,7.6,6.6,7.6z"/>
	<path class="st0" d="M25.7,5.6c-4.8,0-7.5,3.3-7.5,7c0,3.7,1.5,8.3,7.5,8.3s7.3-4.8,7.3-8.4C32.9,9,30.5,5.6,25.7,5.6z M25.7,18
		c-2.9,0-3.6-2.4-3.6-4.7c0-2.3,0.9-4.7,3.6-4.7s3.6,2.6,3.6,4.7C29.2,15.4,28.6,18,25.7,18z"/>
	<path class="st0" d="M34.4,19.1c0,0,0-10.6,0-11.8c0-1,0.4-1.2,1.4-1.2c1,0-0.1,0,1.2,0c1.3,0,1.3,1,1.3,1s0,0.7,0.8,0.1
		C43,3.9,46.2,7,46.2,7s0.8,0.7,1.6,0c1.8-1.6,3.8-1.4,3.8-1.4s5,0,5,5.3c0,3.3,0,7.5,0,8.6c0,1.1-1.3,1-1.3,1h-1.5
		c0,0-1.2,0.2-1.2-1.3c0-1.4,0-3.1,0-6.9c0-3.8-2.4-3.7-2.4-3.7s-2.7-0.2-2.7,2.6c0,2.8-0.1,7.9-0.1,7.9s0.1,1.3-1.2,1.3
		c-1.3,0-0.1,0-1.5,0c-1.4,0-1.3-1.2-1.3-1.2v-6.8c0,0,0-3.7-2.3-3.7c-3.1,0-2.8,3.5-2.8,3.5l0,6.9c0,0,0.1,1.4-1.2,1.4
		c-1.3,0,0,0-1.5,0C34.3,20.5,34.4,19.1,34.4,19.1z"/>
	<path class="st0" d="M72,19.4c0,0-0.2-0.4-0.2-2.2c0-1.7,0-7.8,0-7.8s0-2.6-3.1-3.4c-1.4-0.4-3.5-0.4-3.5-0.4s-6.3,0.1-6.3,3.8
		c0,1.1,1,1,1,1s1,0,1.9,0c0.9,0,1.1-0.9,1.1-0.9s0.3-1.3,2.4-1.3c2.6,0.1,2.6,1.6,2.6,1.6s0.5,2.2-4,2.2c-3.6,0.1-4.6,1.5-5,2.2
		c-1.8,3.1,0.7,5.5,0.7,5.5s2.1,2.2,6.2,0.8c0.7-0.2,1.4-0.6,1.4-0.6s1.1-0.8,1.2,0.2c0.1,0.6,1.2,0.5,1.2,0.5s1,0,2,0
		C72.4,20.5,72,19.4,72,19.4z M67.7,16.2c-0.5,1.9-2.9,2.1-2.9,2.1s-2.6,0.3-2.9-1.6c-0.4-2.5,3.1-2.5,3.1-2.5s1.1-0.1,1.7-0.2
		c0.9-0.2,1,0.5,1,0.5S68,15.1,67.7,16.2z"/>
	<path class="st0" d="M75.8,0C75.1,0,75,0.2,75,0.8c0,0.5,0,2.4,0,3.9C75,6.1,74.6,6,73.6,6c-0.7,0-1,0.1-1,1.1s0,0.7,0,1
		c0,0.4,0.1,0.8,1.2,0.8c0.6,0,1.2,0,1.2,1c0,0.9,0,4.6,0,6.9c0,3,1.3,3.9,4.6,3.9c0.7,0,1.2,0,1.4-0.1c0.7-0.1,0.8-0.1,0.8-1.3
		c0-0.6,0-0.7,0-1c0-0.5-0.2-0.7-1-0.7c-1.7,0-1.9-0.3-1.9-1.9c0-1.6,0-5.3,0-5.8c0-1,0.1-1.1,1.1-1.1c1,0,0.5,0,1.1,0
		c0.7,0,0.8-0.4,0.8-0.8c0-0.4,0-0.7,0-1.2c0-0.6-0.1-0.9-1.1-0.9c-0.2,0-0.4,0-0.8,0c-0.9,0-1.1-0.1-1.1-1.3c0-1.1,0-3.4,0-3.8
		c0-0.6-0.2-0.8-0.8-0.8C77.5,0,76.3,0,75.8,0z"/>
	<path class="st0" d="M84.1,6c-0.8,0-0.9,0.4-0.9,0.7c0,0.4,0,11.4,0,12.4s0,1.3,1,1.3c0.7,0,1.1,0,2,0c0.9,0,0.9-0.3,0.9-1.5
		c0-0.9,0-11.8,0-12.3c0-0.7-0.3-0.7-1.2-0.7C85.4,6,84.7,6,84.1,6z"/>
	<path class="st0" d="M84.1,0c-0.8,0-0.9,0.4-0.9,0.7c0,0.4,0,0.5,0,1.5c0,1,0,1.3,1,1.3c0.7,0,1.1,0,2,0c0.9,0,0.9-0.3,0.9-1.5
		c0-0.9,0-0.9,0-1.4C87.1,0,86.8,0,85.9,0C85.4,0,84.7,0,84.1,0z"/>
	<path class="st0" d="M23,0c-0.8,0-0.9,0.4-0.9,0.7c0,0.4,0,0.5,0,1.5c0,1,0,1.3,1,1.3c0.7,0,4.1,0,5,0c0.9,0,0.9-0.3,0.9-1.5
		c0-0.9,0-0.9,0-1.4C29.1,0,28.8,0,27.9,0C27.4,0,23.7,0,23,0z"/>
</g>
</svg>
